<mxfile host="app.diagrams.net" modified="2023-04-13T09:23:07.481Z" agent="Mozilla/5.0 (Windows NT 10.0; Win64; x64) AppleWebKit/537.36 (KHTML, like Gecko) Chrome/112.0.0.0 Safari/537.36 Edg/112.0.1722.34" version="21.1.7" etag="WIRBZBRquTuJ01QJ5_wI" type="github">
  <diagram name="第 1 页" id="j9L4-bYyW0WUh0wat3kO">
    <mxGraphModel>
      <root>
        <mxCell id="0" />
        <mxCell id="1" parent="0" />
      </root>
    </mxGraphModel>
  </diagram>
</mxfile>
